{
  "accessors": [
    {
      "bufferView": 2,
      "componentType": 5126,
      "count": 6926,
      "max": [15.612899780273438, -22.066999435424805, 3.1826601028442383],
      "min": [-8.562689781188965, -32.01850128173828, -5.125010013580322],
      "type": "VEC3"
    },
    {
      "bufferView": 2,
      "byteOffset": 83112,
      "componentType": 5126,
      "count": 6926,
      "max": [0.999840497970581, 0.9997524619102478, 0.9999887347221375],
      "min": [-0.998652458190918, -0.9992818832397461, -0.999920129776001],
      "type": "VEC3"
    },
    {
      "bufferView": 1,
      "componentType": 5126,
      "count": 6926,
      "max": [0.9516419768333435, 0.9978049993515015],
      "min": [0.5020139813423157, 0.06503359973430634],
      "type": "VEC2"
    },
    {
      "bufferView": 0,
      "componentType": 5125,
      "count": 38859,
      "type": "SCALAR"
    },
    {
      "bufferView": 2,
      "byteOffset": 166224,
      "componentType": 5126,
      "count": 252,
      "max": [5.914859771728516, -22.08970069885254, 1.7720799446105957],
      "min": [1.8339500427246094, -23.01259994506836, -3.286410093307495],
      "type": "VEC3"
    },
    {
      "bufferView": 2,
      "byteOffset": 169248,
      "componentType": 5126,
      "count": 252,
      "max": [-8.742281920604e-8, 0.9837602376937866, -0.17948804795742035],
      "min": [-8.742281920604e-8, 0.9837602376937866, -0.17948804795742035],
      "type": "VEC3"
    },
    {
      "bufferView": 1,
      "byteOffset": 55408,
      "componentType": 5126,
      "count": 252,
      "max": [0.0, 0.0],
      "min": [0.0, 0.0],
      "type": "VEC2"
    },
    {
      "bufferView": 0,
      "byteOffset": 155436,
      "componentType": 5125,
      "count": 1182,
      "type": "SCALAR"
    },
    {
      "bufferView": 2,
      "byteOffset": 172272,
      "componentType": 5126,
      "count": 9947,
      "max": [15.614899635314941, -22.09149932861328, 3.120699882507324],
      "min": [-8.475130081176758, -32.01919937133789, -5.064789772033691],
      "type": "VEC3"
    },
    {
      "bufferView": 2,
      "byteOffset": 291636,
      "componentType": 5126,
      "count": 9947,
      "max": [0.9998555183410645, 0.9997538924217224, 0.999924898147583],
      "min": [-0.9994730949401855, -0.9999651312828064, -0.9999202489852905],
      "type": "VEC3"
    },
    {
      "bufferView": 1,
      "byteOffset": 57424,
      "componentType": 5126,
      "count": 9947,
      "max": [0.9721620082855225, 0.9980289936065674],
      "min": [0.0020094099454581738, 0.3731040060520172],
      "type": "VEC2"
    },
    {
      "bufferView": 0,
      "byteOffset": 160164,
      "componentType": 5125,
      "count": 55701,
      "type": "SCALAR"
    }
  ],
  "asset": {
    "extras": {
      "author": "alban (https://sketchfab.com/alban)",
      "license": "CC-BY-4.0 (http://creativecommons.org/licenses/by/4.0/)",
      "source": "https://sketchfab.com/3d-models/onitsuka-tiger-0dc47f64dc264e5198fb18b2d2a2fbbd",
      "title": "Onitsuka Tiger"
    },
    "generator": "Sketchfab-12.63.0",
    "version": "2.0"
  },
  "bufferViews": [
    {
      "buffer": 0,
      "byteLength": 382968,
      "name": "floatBufferViews",
      "target": 34963
    },
    {
      "buffer": 0,
      "byteLength": 137000,
      "byteOffset": 382968,
      "byteStride": 8,
      "name": "floatBufferViews",
      "target": 34962
    },
    {
      "buffer": 0,
      "byteLength": 411000,
      "byteOffset": 519968,
      "byteStride": 12,
      "name": "floatBufferViews",
      "target": 34962
    }
  ],
  "buffers": [
    {
      "byteLength": 930968,
      "uri": "./scene.bin"
    }
  ],
  "extensionsUsed": ["KHR_materials_unlit"],
  "images": [
    {
      "uri": "./textures/Texture_0_baseColor.jpeg"
    },
    {
      "uri": "./textures/Texture_1_baseColor.jpeg"
    }
  ],
  "materials": [
    {
      "doubleSided": true,
      "extensions": {
        "KHR_materials_unlit": {}
      },
      "name": "Texture_0",
      "pbrMetallicRoughness": {
        "baseColorTexture": {
          "index": 0
        },
        "metallicFactor": 0.0
      }
    },
    {
      "doubleSided": true,
      "extensions": {
        "KHR_materials_unlit": {}
      },
      "name": "Texture_1",
      "pbrMetallicRoughness": {
        "baseColorTexture": {
          "index": 1
        },
        "metallicFactor": 0.0
      }
    }
  ],
  "meshes": [
    {
      "name": "Object_0",
      "primitives": [
        {
          "attributes": {
            "NORMAL": 1,
            "POSITION": 0,
            "TEXCOORD_0": 2
          },
          "indices": 3,
          "material": 0,
          "mode": 4
        }
      ]
    },
    {
      "name": "Object_1",
      "primitives": [
        {
          "attributes": {
            "NORMAL": 5,
            "POSITION": 4,
            "TEXCOORD_0": 6
          },
          "indices": 7,
          "material": 1,
          "mode": 4
        }
      ]
    },
    {
      "name": "Object_2",
      "primitives": [
        {
          "attributes": {
            "NORMAL": 9,
            "POSITION": 8,
            "TEXCOORD_0": 10
          },
          "indices": 11,
          "material": 1,
          "mode": 4
        }
      ]
    }
  ],
  "nodes": [
    {
      "children": [1],
      "matrix": [
        0.9999644756317139, 0.008426889777183533, 1.003783673333099e-18, 0.0,
        0.00833650678396225, -0.9892393350601196, -0.14606864750385307, 0.0,
        -0.0012309043668210506, 0.1460634618997576, -0.9892744421958923, 0.0,
        0.22437454760074615, 0.40314263105392545, -3.9397289752960205, 1.0
      ],
      "name": "Sketchfab_model"
    },
    {
      "children": [2, 3, 4],
      "name": "sculpt.obj.cleaner.materialmerger.gles"
    },
    {
      "mesh": 0,
      "name": "Object_2"
    },
    {
      "mesh": 1,
      "name": "Object_3"
    },
    {
      "mesh": 2,
      "name": "Object_4"
    }
  ],
  "samplers": [
    {
      "magFilter": 9729,
      "minFilter": 9987,
      "wrapS": 10497,
      "wrapT": 10497
    }
  ],
  "scene": 0,
  "scenes": [
    {
      "name": "Sketchfab_Scene",
      "nodes": [0]
    }
  ],
  "textures": [
    {
      "sampler": 0,
      "source": 0
    },
    {
      "sampler": 0,
      "source": 1
    }
  ]
}
